HIERARCHY
ROOT Hips
{
 OFFSET 0.000000 0.000000 0.000000
 CHANNELS 6 Xposition Yposition Zposition Yrotation Xrotation Zrotation
 JOINT Chest
 {
  OFFSET 0.000000 9.585900 0.002600
  CHANNELS 3 Yrotation Xrotation Zrotation
  JOINT Chest2
  {
   OFFSET 0.000000 9.601200 -0.005300
   CHANNELS 3 Yrotation Xrotation Zrotation
   JOINT Chest3
   {
    OFFSET 0.000000 9.561800 0.000000
    CHANNELS 3 Yrotation Xrotation Zrotation
    JOINT Chest4
    {
     OFFSET 0.000000 9.552100 0.000000
     CHANNELS 3 Yrotation Xrotation Zrotation
     JOINT Neck
     {
      OFFSET 0.000000 14.453000 0.000000
      CHANNELS 3 Yrotation Xrotation Zrotation
      JOINT Head
      {
       OFFSET 0.000000 8.936500 -0.011300
       CHANNELS 3 Yrotation Xrotation Zrotation
       End Site
       {
        OFFSET 0.000000 17.073600 -0.006000
       }
      }
     }
     JOINT RightCollar
     {
      OFFSET -2.921100 9.558500 0.000000
      CHANNELS 3 Yrotation Xrotation Zrotation
      JOINT RightShoulder
      {
       OFFSET -13.519700 0.000000 0.000000
       CHANNELS 3 Yrotation Xrotation Zrotation
       JOINT RightElbow
       {
        OFFSET 0.000000 -29.696600 0.000000
        CHANNELS 3 Yrotation Xrotation Zrotation
        JOINT RightWrist
        {
         OFFSET 0.000000 -24.004700 0.000000
         CHANNELS 3 Yrotation Xrotation Zrotation
         End Site
         {
          OFFSET 0.000000 -17.728500 0.000000
         }
        }
       }
      }
     }
     JOINT LeftCollar
     {
      OFFSET 2.921100 9.558500 0.000000
      CHANNELS 3 Yrotation Xrotation Zrotation
      JOINT LeftShoulder
      {
       OFFSET 13.519700 0.000000 0.000000
       CHANNELS 3 Yrotation Xrotation Zrotation
       JOINT LeftElbow
       {
        OFFSET 0.000000 -29.696600 0.000000
        CHANNELS 3 Yrotation Xrotation Zrotation
        JOINT LeftWrist
        {
         OFFSET 0.000000 -24.004700 0.000000
         CHANNELS 3 Yrotation Xrotation Zrotation
         End Site
         {
          OFFSET 0.000000 -17.728500 0.000000
         }
        }
       }
      }
     }
    }
   }
  }
 }
 JOINT RightHip
 {
  OFFSET -7.771700 -0.012900 -0.001300
  CHANNELS 3 Yrotation Xrotation Zrotation
  JOINT RightKnee
  {
   OFFSET 0.000000 -40.869800 0.001200
   CHANNELS 3 Yrotation Xrotation Zrotation
   JOINT RightAnkle
   {
    OFFSET 0.000000 -39.717900 0.002100
    CHANNELS 3 Yrotation Xrotation Zrotation
    JOINT RightToe
    {
     OFFSET 0.000000 -4.965400 11.033500
     CHANNELS 3 Yrotation Xrotation Zrotation
     End Site
     {
      OFFSET 0.000000 -1.423100 5.872300
     }
    }
   }
  }
 }
 JOINT LeftHip
 {
  OFFSET 7.771700 -0.012900 -0.001300
  CHANNELS 3 Yrotation Xrotation Zrotation
  JOINT LeftKnee
  {
   OFFSET 0.000000 -40.869800 0.001200
   CHANNELS 3 Yrotation Xrotation Zrotation
   JOINT LeftAnkle
   {
    OFFSET 0.000000 -39.717900 0.002100
    CHANNELS 3 Yrotation Xrotation Zrotation
    JOINT LeftToe
    {
     OFFSET 0.000000 -4.965400 11.033500
     CHANNELS 3 Yrotation Xrotation Zrotation
     End Site
     {
      OFFSET 0.000000 -1.423100 5.872300
     }
    }
   }
  }
 }
}
MOTION
Frames: 5
Frame Time: 0.008333
-40.570945 57.983465 12.356683 177.214649 -51.150596 -3.280420 3.316276 22.680690 3.015404 1.712733 12.952075 1.530819 2.208361 16.208655 1.989103 1.706019 13.019565 1.537072 1.229036 15.593206 1.876685 1.600471 -6.757596 3.068721 0.029676 4.635615 0.471617 -7.668313 -12.801778 -7.933764 -83.787912 -62.799558 132.603339 11.810695 7.577847 -14.139856 -10.645535 0.725017 -0.477392 6.512815 -9.949982 11.061148 86.445185 -63.290256 -126.321237 1.450772 -16.360081 9.112139 3.780626 -20.407756 -2.678400 -33.220605 73.217254 -36.804290 6.257125 -13.366502 11.389117 0.020618 0.118287 -0.038792 -7.942509 -17.516099 5.390364 86.318720 81.001375 86.093315 1.486432 -21.589289 -19.312221 -0.022896 0.008451 -0.004142
-40.567566 57.985459 12.358867 177.224915 -51.238008 -3.284098 3.317300 22.659814 3.020196 1.710780 12.971904 1.530875 2.208844 16.206843 1.988992 1.703106 13.062605 1.539236 1.240288 15.581876 1.869729 1.616890 -6.696478 3.060468 0.028688 4.639334 0.468868 -7.670200 -12.831444 -7.929583 -83.875623 -62.778104 132.696469 11.825239 7.596714 -14.175992 -10.636897 0.684978 -0.462962 6.503841 -9.939613 11.068495 86.657242 -63.365971 -126.525771 1.417387 -16.337973 9.073198 3.757192 -20.323458 -2.673358 -33.240911 73.222478 -36.827261 6.265241 -13.385745 11.374682 0.022701 0.113754 -0.034256 -7.933306 -17.427257 5.397260 86.286217 81.008252 86.043864 1.482549 -21.593640 -19.309941 -0.031468 0.016571 0.006036
-40.567750 57.986381 12.361591 177.226588 -51.316847 -3.260253 3.311335 22.656080 3.001661 1.711024 12.970877 1.530968 2.209200 16.205516 1.989204 1.703986 13.056356 1.537047 1.244705 15.617722 1.866787 1.627582 -6.639565 3.048389 0.031486 4.629238 0.455212 -7.675192 -12.802506 -7.922839 -83.842342 -62.760479 132.654836 11.867073 7.567283 -14.198752 -10.633698 0.692062 -0.452588 6.493767 -9.891046 11.068558 86.945808 -63.451439 -126.801662 1.375068 -16.320440 9.033623 3.734455 -20.248123 -2.692259 -33.221409 73.233926 -36.821742 6.251186 -13.423907 11.356429 0.039518 0.131342 -0.022418 -7.916340 -17.351015 5.377442 86.257064 80.985280 85.981674 1.477082 -21.587896 -19.282513 -0.064937 0.025347 -0.004799
-40.564786 57.987177 12.364906 177.232876 -51.391761 -3.259798 3.312719 22.653582 3.005951 1.708759 12.988332 1.530195 2.211930 16.185094 1.989763 1.701654 13.049114 1.535945 1.248472 15.651647 1.860950 1.629688 -6.586448 3.042973 0.037264 4.615636 0.442635 -7.684751 -12.738076 -7.917925 -84.031539 -62.736620 132.869770 11.861129 7.600664 -14.249557 -10.630985 0.699375 -0.443132 6.484983 -9.847447 11.068817 87.226485 -63.538688 -127.068470 1.323810 -16.304682 8.996414 3.721922 -20.174383 -2.688098 -33.205246 73.241370 -36.809984 6.245335 -13.464862 11.347738 0.043082 0.106429 -0.010610 -7.905808 -17.276896 5.387272 86.215492 80.999756 85.923250 1.463576 -21.588546 -19.270290 -0.058299 0.026939 -0.000161
-40.563026 57.987080 12.368889 177.235481 -51.458084 -3.250698 3.313521 22.682992 3.001244 1.712097 12.949893 1.532838 2.211288 16.183104 1.990268 1.700903 13.046215 1.535919 1.248157 15.678331 1.853861 1.622588 -6.533972 3.053868 0.032370 4.655364 0.442303 -7.682537 -12.735890 -7.920098 -84.203607 -62.710978 133.075996 11.855041 7.629880 -14.308047 -10.630621 0.704234 -0.432968 6.483417 -9.839370 11.077566 87.431568 -63.614405 -127.262217 1.268231 -16.288988 8.954134 3.715448 -20.106922 -2.688458 -33.198394 73.243948 -36.809569 6.240264 -13.529441 11.326389 0.039462 0.123487 0.010098 -7.891047 -17.213068 5.389788 86.164622 81.017072 85.856430 1.454064 -21.587917 -19.256712 -0.051711 0.028480 0.003275
